# xmcd
#
# Track frame offsets:
#	150
#	10509
#	23807
#	35884
#	51680
#	67720
#	81569
#	92844
#	105099
#	116781
#	127515
#	139815
#	154322
#	169019
#	183222
#	195577
#	207990
#	219774
#	234957
#	247869
#	260667
#	273919
#	287008
#
# Disc length: 3996 seconds
#
# Revision: 0
# Processed by: cddbd v1.4PL0 Copyright (c) Steve Scherf et al.
# Submitted via: EasyCDDAExtractor 4.6.9.1
#
DISCID=370f9a17
DTITLE=Varios - La Música de México [CD 3)
DYEAR=2002
DGENRE=Country
TTITLE0=Señorita (Los Paladines)
TTITLE1=Pañoma Querida (Los Paladines)
TTITLE2=Novia Mia (Los Paladines)
TTITLE3=Parece que Fúe Ayer (Los Paladines)
TTITLE4=Como han Pasado Los Años (Los Paladines)
TTITLE5=Historia de un Amor (Sonia Lopez y Los Tres Ases)
TTITLE6=Gema (Los Dandys)
TTITLE7=Reloj (Los Tres Caballeros)
TTITLE8=Mitad Tu, Mitad Yo (Los Paladines)
TTITLE9=El Andariego (Los Santos)
TTITLE10=Nuestro Amor (Los Panchos)
TTITLE11=Flor de Azalea(Los Calavera)
TTITLE12=Nuestro Juramento (Julio Jaramillo)
TTITLE13=Regalame esta Noche (Los Tres Caballeros)
TTITLE14=Como un Duende (Los Dandys)
TTITLE15=Lagrimas de Amor (Los tres Caballeros)
TTITLE16=Caminemos (Los Panchos)
TTITLE17=Amémonos (Los Calavera)
TTITLE18=Tres Regalos (Los Dandys)
TTITLE19=Morenita Mia (Los Calavera)
TTITLE20=Sin un Amor (Los Panchos)
TTITLE21=Semejanzas (Maria de Lourdes)
TTITLE22=Quisiera (Los Calavera)
EXTD=
EXTT0=
EXTT1=
EXTT2=
EXTT3=
EXTT4=
EXTT5=
EXTT6=
EXTT7=
EXTT8=
EXTT9=
EXTT10=
EXTT11=
EXTT12=
EXTT13=
EXTT14=
EXTT15=
EXTT16=
EXTT17=
EXTT18=
EXTT19=
EXTT20=
EXTT21=
EXTT22=
PLAYORDER=
